<?xml version="1.0" encoding="UTF-8" standalone="no"?><!-- Generator: Gravit.io --><svg xmlns="http://www.w3.org/2000/svg" xmlns:xlink="http://www.w3.org/1999/xlink" style="isolation:isolate" viewBox="568 226.42 333.416 53" width="333.416pt" height="53pt"><g><g><path d=" M 621 271.009 L 612.847 271.009 L 612.847 279.42 L 568 279.42 L 568 230.337 L 612.847 230.337 L 621 271.009 Z " fill="rgb(1,141,210)"/><g><path d=" M 574.771 246.209 L 580.302 246.209 L 580.302 251.739 L 574.771 251.739 L 574.771 246.209 Z " fill="rgb(245,221,205)"/><path d=" M 587.658 246.209 L 593.188 246.209 L 593.188 251.739 L 587.658 251.739 L 587.658 246.209 Z " fill="rgb(245,221,205)"/><path d=" M 600.544 246.209 L 606.075 246.209 L 606.075 251.739 L 600.544 251.739 L 600.544 246.209 Z " fill="rgb(245,221,205)"/><path d=" M 574.771 257.241 L 580.302 257.241 L 580.302 262.772 L 574.771 262.772 L 574.771 257.241 Z " fill="rgb(245,221,205)"/><path d=" M 587.658 257.241 L 593.188 257.241 L 593.188 262.772 L 587.658 262.772 L 587.658 257.241 Z " fill="rgb(245,221,205)"/><path d=" M 600.544 257.241 L 606.075 257.241 L 606.075 262.772 L 600.544 262.772 L 600.544 257.241 Z " fill="rgb(245,221,205)"/><path d=" M 574.771 268.273 L 580.302 268.273 L 580.302 273.803 L 574.771 273.803 L 574.771 268.273 Z " fill="rgb(245,221,205)"/><path d=" M 587.658 268.273 L 593.188 268.273 L 593.188 273.803 L 587.658 273.803 L 587.658 268.273 Z " fill="rgb(245,221,205)"/><path d=" M 600.544 268.273 L 606.075 268.273 L 606.075 273.803 L 600.544 273.803 L 600.544 268.273 Z " fill="rgb(245,221,205)"/></g><path d=" M 612.846 230.337 L 621 271.01 L 612.846 271.01 L 612.846 230.337 Z " fill="rgb(0,85,128)"/><path d=" M 576.154 226.42 L 578.919 226.42 L 578.919 234.255 L 576.154 234.255 L 576.154 226.42 Z " fill="rgb(245,221,205)"/><path d=" M 589.041 226.42 L 591.806 226.42 L 591.806 234.255 L 589.041 234.255 L 589.041 226.42 Z " fill="rgb(245,221,205)"/><path d=" M 601.927 226.42 L 604.692 226.42 L 604.692 234.255 L 601.927 234.255 L 601.927 226.42 Z " fill="rgb(245,221,205)"/><path d=" M 568 238.979 L 612.847 238.979 L 612.847 240.592 L 568 240.592 L 568 238.979 Z " fill="rgb(245,221,205)"/></g><path d=" M 644.808 271.68 L 644.808 271.68 Q 642.024 271.68 639.504 271.056 L 639.504 271.056 L 639.504 271.056 Q 636.984 270.432 635.16 269.376 L 635.16 269.376 L 635.736 262.944 L 635.736 262.944 Q 637.896 264.288 640.272 265.032 L 640.272 265.032 L 640.272 265.032 Q 642.648 265.776 644.664 265.776 L 644.664 265.776 L 644.664 265.776 Q 646.968 265.776 648.408 264.816 L 648.408 264.816 L 648.408 264.816 Q 649.848 263.856 649.848 262.272 L 649.848 262.272 L 649.848 262.272 Q 649.848 260.976 648.888 260.28 L 648.888 260.28 L 648.888 260.28 Q 647.928 259.584 645.864 258.768 L 645.864 258.768 L 644.712 258.288 L 644.712 258.288 Q 644.472 258.192 644.184 258.072 L 644.184 258.072 L 644.184 258.072 Q 643.896 257.952 643.512 257.808 L 643.512 257.808 L 643.512 257.808 Q 640.824 256.704 639.192 255.72 L 639.192 255.72 L 639.192 255.72 Q 637.56 254.736 636.384 252.96 L 636.384 252.96 L 636.384 252.96 Q 635.208 251.184 635.208 248.352 L 635.208 248.352 L 635.208 248.352 Q 635.208 243.744 638.328 241.104 L 638.328 241.104 L 638.328 241.104 Q 641.448 238.464 647.016 238.464 L 647.016 238.464 L 647.016 238.464 Q 651.24 238.464 655.656 240.192 L 655.656 240.192 L 654.6 246.528 L 654.6 246.528 Q 652.824 245.52 650.784 244.944 L 650.784 244.944 L 650.784 244.944 Q 648.744 244.368 646.92 244.368 L 646.92 244.368 L 646.92 244.368 Q 644.664 244.368 643.416 245.256 L 643.416 245.256 L 643.416 245.256 Q 642.168 246.144 642.168 247.632 L 642.168 247.632 L 642.168 247.632 Q 642.168 248.928 643.032 249.648 L 643.032 249.648 L 643.032 249.648 Q 643.896 250.368 645.816 251.184 L 645.816 251.184 L 647.784 251.952 L 647.784 251.952 Q 650.568 253.008 652.392 254.016 L 652.392 254.016 L 652.392 254.016 Q 654.216 255.024 655.512 256.92 L 655.512 256.92 L 655.512 256.92 Q 656.808 258.816 656.808 261.84 L 656.808 261.84 L 656.808 261.84 Q 656.808 266.496 653.64 269.088 L 653.64 269.088 L 653.64 269.088 Q 650.472 271.68 644.808 271.68 L 644.808 271.68 L 644.808 271.68 Z  M 673.608 271.776 L 673.608 271.776 Q 667.464 271.776 664.08 268.512 L 664.08 268.512 L 664.08 268.512 Q 660.696 265.248 660.696 259.296 L 660.696 259.296 L 660.696 259.296 Q 660.696 255.264 662.28 252.168 L 662.28 252.168 L 662.28 252.168 Q 663.864 249.072 666.744 247.368 L 666.744 247.368 L 666.744 247.368 Q 669.624 245.664 673.416 245.664 L 673.416 245.664 L 673.416 245.664 Q 675.192 245.664 677.136 246.072 L 677.136 246.072 L 677.136 246.072 Q 679.08 246.48 680.136 247.008 L 680.136 247.008 L 678.84 252.72 L 678.84 252.72 Q 677.736 252.192 676.416 251.88 L 676.416 251.88 L 676.416 251.88 Q 675.096 251.568 673.944 251.568 L 673.944 251.568 L 673.944 251.568 Q 670.968 251.568 669.168 253.584 L 669.168 253.584 L 669.168 253.584 Q 667.368 255.6 667.368 258.912 L 667.368 258.912 L 667.368 258.912 Q 667.368 262.272 669.216 264.096 L 669.216 264.096 L 669.216 264.096 Q 671.064 265.92 674.472 265.92 L 674.472 265.92 L 674.472 265.92 Q 676.728 265.92 679.32 265.056 L 679.32 265.056 L 680.328 270.528 L 680.328 270.528 Q 677.208 271.776 673.608 271.776 L 673.608 271.776 L 673.608 271.776 Z  M 685.128 271.056 L 685.128 236.016 L 691.896 236.016 L 691.896 249.936 L 691.896 249.936 Q 693.384 247.728 695.304 246.696 L 695.304 246.696 L 695.304 246.696 Q 697.224 245.664 699.72 245.664 L 699.72 245.664 L 699.72 245.664 Q 703.704 245.664 705.96 248.04 L 705.96 248.04 L 705.96 248.04 Q 708.216 250.416 708.216 254.64 L 708.216 254.64 L 708.216 271.056 L 701.448 271.056 L 701.448 255.696 L 701.448 255.696 Q 701.448 253.776 700.488 252.696 L 700.488 252.696 L 700.488 252.696 Q 699.528 251.616 697.896 251.616 L 697.896 251.616 L 697.896 251.616 Q 696.12 251.616 694.512 252.84 L 694.512 252.84 L 694.512 252.84 Q 692.904 254.064 691.896 256.08 L 691.896 256.08 L 691.896 271.056 L 685.128 271.056 L 685.128 271.056 Z  M 726.12 271.776 L 726.12 271.776 Q 720.12 271.776 716.688 268.32 L 716.688 268.32 L 716.688 268.32 Q 713.256 264.864 713.256 258.72 L 713.256 258.72 L 713.256 258.72 Q 713.256 254.736 714.744 251.784 L 714.744 251.784 L 714.744 251.784 Q 716.232 248.832 718.944 247.248 L 718.944 247.248 L 718.944 247.248 Q 721.656 245.664 725.304 245.664 L 725.304 245.664 L 725.304 245.664 Q 730.68 245.664 733.56 249.12 L 733.56 249.12 L 733.56 249.12 Q 736.44 252.576 736.44 259.104 L 736.44 259.104 L 736.44 259.104 Q 736.44 260.208 736.392 260.736 L 736.392 260.736 L 720.072 260.736 L 720.072 260.736 Q 720.552 263.28 722.28 264.6 L 722.28 264.6 L 722.28 264.6 Q 724.008 265.92 726.936 265.92 L 726.936 265.92 L 726.936 265.92 Q 728.712 265.92 730.632 265.464 L 730.632 265.464 L 730.632 265.464 Q 732.552 265.008 733.992 264.24 L 733.992 264.24 L 735.096 269.664 L 735.096 269.664 Q 733.176 270.672 730.848 271.224 L 730.848 271.224 L 730.848 271.224 Q 728.52 271.776 726.12 271.776 L 726.12 271.776 L 726.12 271.776 Z  M 720.024 255.648 L 729.96 255.648 L 729.96 255.648 Q 729.816 253.584 728.52 252.36 L 728.52 252.36 L 728.52 252.36 Q 727.224 251.136 725.064 251.136 L 725.064 251.136 L 725.064 251.136 Q 723 251.136 721.68 252.336 L 721.68 252.336 L 721.68 252.336 Q 720.36 253.536 720.024 255.648 L 720.024 255.648 L 720.024 255.648 Z  M 749.448 271.776 L 749.448 271.776 Q 745.272 271.776 742.896 268.584 L 742.896 268.584 L 742.896 268.584 Q 740.52 265.392 740.52 259.68 L 740.52 259.68 L 740.52 259.68 Q 740.52 252.912 744.048 249.288 L 744.048 249.288 L 744.048 249.288 Q 747.576 245.664 754.104 245.664 L 754.104 245.664 L 754.104 245.664 Q 754.92 245.664 756.552 245.76 L 756.552 245.76 L 756.552 236.016 L 763.224 236.016 L 763.224 271.056 L 756.648 271.056 L 756.792 267.84 L 756.6 267.84 L 756.6 267.84 Q 755.352 269.76 753.552 270.768 L 753.552 270.768 L 753.552 270.768 Q 751.752 271.776 749.448 271.776 L 749.448 271.776 L 749.448 271.776 Z  M 750.984 265.872 L 750.984 265.872 Q 752.52 265.872 753.96 264.552 L 753.96 264.552 L 753.96 264.552 Q 755.4 263.232 756.552 260.784 L 756.552 260.784 L 756.552 252 L 756.552 252 Q 754.92 251.568 753.432 251.568 L 753.432 251.568 L 753.432 251.568 Q 750.408 251.568 748.848 253.536 L 748.848 253.536 L 748.848 253.536 Q 747.288 255.504 747.288 259.296 L 747.288 259.296 L 747.288 259.296 Q 747.288 262.368 748.272 264.12 L 748.272 264.12 L 748.272 264.12 Q 749.256 265.872 750.984 265.872 L 750.984 265.872 L 750.984 265.872 Z  M 777.624 271.728 L 777.624 271.728 Q 773.688 271.728 771.432 269.328 L 771.432 269.328 L 771.432 269.328 Q 769.176 266.928 769.176 262.752 L 769.176 262.752 L 769.176 246.336 L 775.944 246.336 L 775.944 261.648 L 775.944 261.648 Q 775.944 263.616 776.904 264.696 L 776.904 264.696 L 776.904 264.696 Q 777.864 265.776 779.496 265.776 L 779.496 265.776 L 779.496 265.776 Q 781.128 265.776 782.64 264.72 L 782.64 264.72 L 782.64 264.72 Q 784.152 263.664 785.16 261.888 L 785.16 261.888 L 785.16 246.336 L 791.928 246.336 L 791.928 271.056 L 785.16 271.056 L 785.16 267.792 L 785.16 267.792 Q 783.768 269.664 781.968 270.696 L 781.968 270.696 L 781.968 270.696 Q 780.168 271.728 777.624 271.728 L 777.624 271.728 L 777.624 271.728 Z  M 797.064 271.056 L 797.064 265.248 L 801.432 265.248 L 801.432 241.776 L 797.304 241.776 L 797.304 236.016 L 808.2 236.016 L 808.2 265.248 L 812.568 265.248 L 812.568 271.056 L 797.064 271.056 L 797.064 271.056 Z  M 819.912 242.256 L 819.912 236.016 L 827.64 236.016 L 827.64 242.256 L 819.912 242.256 L 819.912 242.256 Z  M 816.168 271.056 L 816.168 265.248 L 820.776 265.248 L 820.776 252.144 L 816.168 252.144 L 816.168 246.336 L 827.544 246.336 L 827.544 265.248 L 831.672 265.248 L 831.672 271.056 L 816.168 271.056 L 816.168 271.056 Z  M 835.08 271.008 L 835.08 266.592 L 846.936 252.144 L 835.896 252.144 L 835.896 246.336 L 855.192 246.336 L 855.192 250.752 L 843.384 265.248 L 855.192 265.248 L 855.192 271.008 L 835.08 271.008 L 835.08 271.008 Z  M 871.128 271.776 L 871.128 271.776 Q 865.128 271.776 861.696 268.32 L 861.696 268.32 L 861.696 268.32 Q 858.264 264.864 858.264 258.72 L 858.264 258.72 L 858.264 258.72 Q 858.264 254.736 859.752 251.784 L 859.752 251.784 L 859.752 251.784 Q 861.24 248.832 863.952 247.248 L 863.952 247.248 L 863.952 247.248 Q 866.664 245.664 870.312 245.664 L 870.312 245.664 L 870.312 245.664 Q 875.688 245.664 878.568 249.12 L 878.568 249.12 L 878.568 249.12 Q 881.448 252.576 881.448 259.104 L 881.448 259.104 L 881.448 259.104 Q 881.448 260.208 881.4 260.736 L 881.4 260.736 L 865.08 260.736 L 865.08 260.736 Q 865.56 263.28 867.288 264.6 L 867.288 264.6 L 867.288 264.6 Q 869.016 265.92 871.944 265.92 L 871.944 265.92 L 871.944 265.92 Q 873.72 265.92 875.64 265.464 L 875.64 265.464 L 875.64 265.464 Q 877.56 265.008 879 264.24 L 879 264.24 L 880.104 269.664 L 880.104 269.664 Q 878.184 270.672 875.856 271.224 L 875.856 271.224 L 875.856 271.224 Q 873.528 271.776 871.128 271.776 L 871.128 271.776 L 871.128 271.776 Z  M 865.032 255.648 L 874.968 255.648 L 874.968 255.648 Q 874.824 253.584 873.528 252.36 L 873.528 252.36 L 873.528 252.36 Q 872.232 251.136 870.072 251.136 L 870.072 251.136 L 870.072 251.136 Q 868.008 251.136 866.688 252.336 L 866.688 252.336 L 866.688 252.336 Q 865.368 253.536 865.032 255.648 L 865.032 255.648 L 865.032 255.648 Z  M 886.632 271.056 L 886.632 246.336 L 893.4 246.336 L 893.4 250.368 L 893.784 250.368 L 893.784 250.368 Q 895.176 247.92 896.544 246.768 L 896.544 246.768 L 896.544 246.768 Q 897.912 245.616 899.976 245.616 L 899.976 245.616 L 899.976 245.616 Q 900.84 245.616 901.416 245.808 L 901.416 245.808 L 900.696 253.104 L 900.696 253.104 Q 899.448 252.768 898.68 252.768 L 898.68 252.768 L 898.68 252.768 Q 897.576 252.768 896.736 253.2 L 896.736 253.2 L 896.736 253.2 Q 895.896 253.632 895.248 254.352 L 895.248 254.352 L 895.248 254.352 Q 894.6 255.072 893.4 256.56 L 893.4 256.56 L 893.4 271.056 L 886.632 271.056 L 886.632 271.056 Z " fill="rgb(0,0,0)"/></g></svg>