<?xml version="1.0" encoding="UTF-8" standalone="no"?><!-- Generator: Gravit.io --><svg xmlns="http://www.w3.org/2000/svg" xmlns:xlink="http://www.w3.org/1999/xlink" style="isolation:isolate" viewBox="568 226.42 53 53" width="53pt" height="53pt"><g><path d=" M 621 271.009 L 612.847 271.009 L 612.847 279.42 L 568 279.42 L 568 230.337 L 612.847 230.337 L 621 271.009 Z " fill="rgb(1,141,210)"/><g><path d=" M 574.771 246.209 L 580.302 246.209 L 580.302 251.739 L 574.771 251.739 L 574.771 246.209 Z " fill="rgb(245,221,205)"/><path d=" M 587.658 246.209 L 593.188 246.209 L 593.188 251.739 L 587.658 251.739 L 587.658 246.209 Z " fill="rgb(245,221,205)"/><path d=" M 600.544 246.209 L 606.075 246.209 L 606.075 251.739 L 600.544 251.739 L 600.544 246.209 Z " fill="rgb(245,221,205)"/><path d=" M 574.771 257.241 L 580.302 257.241 L 580.302 262.772 L 574.771 262.772 L 574.771 257.241 Z " fill="rgb(245,221,205)"/><path d=" M 587.658 257.241 L 593.188 257.241 L 593.188 262.772 L 587.658 262.772 L 587.658 257.241 Z " fill="rgb(245,221,205)"/><path d=" M 600.544 257.241 L 606.075 257.241 L 606.075 262.772 L 600.544 262.772 L 600.544 257.241 Z " fill="rgb(245,221,205)"/><path d=" M 574.771 268.273 L 580.302 268.273 L 580.302 273.803 L 574.771 273.803 L 574.771 268.273 Z " fill="rgb(245,221,205)"/><path d=" M 587.658 268.273 L 593.188 268.273 L 593.188 273.803 L 587.658 273.803 L 587.658 268.273 Z " fill="rgb(245,221,205)"/><path d=" M 600.544 268.273 L 606.075 268.273 L 606.075 273.803 L 600.544 273.803 L 600.544 268.273 Z " fill="rgb(245,221,205)"/></g><path d=" M 612.846 230.337 L 621 271.01 L 612.846 271.01 L 612.846 230.337 Z " fill="rgb(0,85,128)"/><path d=" M 576.154 226.42 L 578.919 226.42 L 578.919 234.255 L 576.154 234.255 L 576.154 226.42 Z " fill="rgb(245,221,205)"/><path d=" M 589.041 226.42 L 591.806 226.42 L 591.806 234.255 L 589.041 234.255 L 589.041 226.42 Z " fill="rgb(245,221,205)"/><path d=" M 601.927 226.42 L 604.692 226.42 L 604.692 234.255 L 601.927 234.255 L 601.927 226.42 Z " fill="rgb(245,221,205)"/><path d=" M 568 238.979 L 612.847 238.979 L 612.847 240.592 L 568 240.592 L 568 238.979 Z " fill="rgb(245,221,205)"/></g></svg>